Coordinates
version=1
nRows=20
nColumns=38
inDegrees=no

Units are S.I. units (second, meters, Newtons, ...)
If the header above contains a line with 'inDegrees', this indicates whether rotational values are in degrees (yes) or radians (no).

endheader
time	pelvis_tilt	pelvis_list	pelvis_rotation	pelvis_tx	pelvis_ty	pelvis_tz	hip_flexion_r	hip_adduction_r	hip_rotation_r	knee_angle_r	ankle_angle_r	subtalar_angle_r	mtp_angle_r	hip_flexion_l	hip_adduction_l	hip_rotation_l	knee_angle_l	ankle_angle_l	subtalar_angle_l	mtp_angle_l	lumbar_extension	lumbar_bending	lumbar_rotation	arm_flex_r	arm_add_r	arm_rot_r	elbow_flex_r	pro_sup_r	wrist_flex_r	wrist_dev_r	arm_flex_l	arm_add_l	arm_rot_l	elbow_flex_l	pro_sup_l	wrist_flex_l	wrist_dev_l
0.55	2.68115	1.47746	-0.986577	0.592615	-0.0342707	0.910938	0.34913	-0.0418143	-0.289934	0.411579	0.039495	0	0	-0.202364	-0.21053	-0.201498	0.760603	0.106781	0	0	-0.231292	0.0793277	-0.222353	-0.116818	-0.233052	0.163045	0.587375	0.410918	0	0	0.075424	-0.393153	0.330738	0.698901	1.2397	0	0
0.56	2.54263	1.48187	-0.85102	0.594656	-0.0219893	0.911162	0.347932	-0.0285732	-0.290233	0.411845	0.0431447	0	0	-0.157104	-0.22735	-0.185313	0.825506	0.0498473	0	0	-0.217896	0.0887376	-0.217746	-0.121268	-0.239666	0.181581	0.590362	0.388196	0	0	0.0653822	-0.390465	0.333146	0.701773	1.21935	0	0
0.57	2.39812	1.48372	-0.70964	0.596682	-0.00977572	0.911352	0.343876	-0.0140873	-0.288988	0.40831	0.0483677	0	0	-0.112853	-0.242837	-0.169147	0.88817	0.00960284	0	0	-0.205208	0.0982932	-0.212536	-0.127117	-0.246117	0.195576	0.596622	0.371782	0	0	0.0556174	-0.387969	0.336456	0.705164	1.20319	0	0
0.58	2.30146	1.48246	-0.616814	0.598668	0.00242848	0.912013	0.334255	-0.000399367	-0.284992	0.403778	0.055769	0	0	-0.0757134	-0.254872	-0.155873	0.943517	-0.00666592	0	0	-0.197601	0.106052	-0.206387	-0.132888	-0.251103	0.202534	0.603761	0.363569	0	0	0.0466273	-0.385674	0.339338	0.708448	1.19348	0	0
0.59	2.23938	1.48076	-0.558403	0.600497	0.0144449	0.913017	0.323041	0.0115368	-0.277866	0.400977	0.0646903	0	0	-0.0415978	-0.263587	-0.143144	0.99382	-0.00653747	0	0	-0.192814	0.111847	-0.200485	-0.138785	-0.256297	0.209336	0.614446	0.354228	0	0	0.038421	-0.38425	0.345089	0.712194	1.17912	0	0
0.6	2.25495	1.47859	-0.578038	0.602296	0.0262642	0.914906	0.305975	0.0201012	-0.266815	0.399291	0.0732515	0	0	-0.0159151	-0.266981	-0.131341	1.03785	0.00302091	0	0	-0.195554	0.113267	-0.193674	-0.142499	-0.258517	0.209741	0.621974	0.348466	0	0	0.0325498	-0.383552	0.351362	0.714762	1.16782	0	0
0.61	2.31341	1.47678	-0.640614	0.604113	0.0378501	0.917342	0.285795	0.025769	-0.25383	0.398016	0.0817095	0	0	0.00555958	-0.266466	-0.120313	1.07798	0.021095	0	0	-0.202301	0.110994	-0.186469	-0.144525	-0.258208	0.206399	0.626466	0.347158	0	0	0.028483	-0.383572	0.358899	0.715965	1.15675	0	0
0.62	2.39285	1.4758	-0.72479	0.60593	0.0492376	0.920041	0.264525	0.0283089	-0.241506	0.396626	0.0907503	0	0	0.0247526	-0.262548	-0.111681	1.11212	0.0437046	0	0	-0.210514	0.105563	-0.178833	-0.145103	-0.256141	0.200665	0.627865	0.350707	0	0	0.0248964	-0.383236	0.363785	0.715836	1.15441	0	0
0.63	2.4743	1.4757	-0.811333	0.607695	0.0604743	0.922778	0.243148	0.0284912	-0.231694	0.393146	0.0994653	0	0	0.0438843	-0.256704	-0.105562	1.13958	0.0651988	0	0	-0.217895	0.0982627	-0.171127	-0.144895	-0.253118	0.193697	0.627078	0.356609	0	0	0.0210415	-0.382428	0.366821	0.714964	1.15694	0	0
0.64	2.54258	1.47625	-0.884444	0.609403	0.0715624	0.92539	0.221996	0.0280414	-0.224959	0.385923	0.106586	0	0	0.0649975	-0.25087	-0.100814	1.16195	0.0834283	0	0	-0.223272	0.0908007	-0.163908	-0.144497	-0.249981	0.187693	0.625245	0.360745	0	0	0.01663	-0.381294	0.36855	0.713905	1.16261	0	0
0.65	2.59735	1.47766	-0.94353	0.611004	0.0824499	0.927807	0.20173	0.0270062	-0.221996	0.376015	0.111993	0	0	0.0885086	-0.245114	-0.0967222	1.17992	0.0993407	0	0	-0.226659	0.0835881	-0.15743	-0.144176	-0.247128	0.183735	0.623164	0.362886	0	0	0.0115998	-0.379983	0.369211	0.713098	1.16957	0	0
0.66	2.63943	1.4802	-0.98996	0.612536	0.0932535	0.929991	0.182431	0.025956	-0.220814	0.363614	0.116115	0	0	0.113805	-0.239741	-0.0944519	1.19327	0.114365	0	0	-0.227726	0.0766092	-0.151152	-0.144465	-0.244525	0.181092	0.620883	0.36377	0	0	0.00565034	-0.378275	0.368429	0.712339	1.17863	0	0
0.67	2.67533	1.48349	-1.03042	0.614009	0.104014	0.931996	0.163981	0.0248332	-0.220393	0.350167	0.119661	0	0	0.139657	-0.234754	-0.0947646	1.20175	0.128732	0	0	-0.227293	0.0697855	-0.144943	-0.14562	-0.242519	0.180257	0.61913	0.363005	0	0	-0.00130239	-0.376149	0.365776	0.712044	1.1909	0	0
0.68	2.70969	1.48688	-1.06946	0.61541	0.114707	0.933881	0.146017	0.0237198	-0.220267	0.336538	0.122764	0	0	0.1652	-0.229976	-0.0970051	1.20584	0.142052	0	0	-0.226385	0.0632148	-0.138647	-0.147687	-0.241383	0.181761	0.618301	0.360068	0	0	-0.00857113	-0.373997	0.363604	0.711691	1.20384	0	0
0.69	2.74933	1.49052	-1.11407	0.616702	0.125293	0.935674	0.128564	0.0220505	-0.218999	0.322733	0.125045	0	0	0.190041	-0.224605	-0.100922	1.20556	0.154342	0	0	-0.225274	0.0564309	-0.132	-0.150462	-0.241074	0.185082	0.618045	0.355111	0	0	-0.0156282	-0.37163	0.362154	0.710969	1.21651	0	0
0.7	2.79453	1.4941	-1.16451	0.617929	0.135811	0.937373	0.111112	0.0202796	-0.216512	0.308517	0.127015	0	0	0.213898	-0.21926	-0.107035	1.20101	0.16495	0	0	-0.22422	0.0495337	-0.124983	-0.153875	-0.241309	0.189439	0.618167	0.348755	0	0	-0.0225074	-0.369058	0.360636	0.710096	1.22767	0	0
0.71	2.84895	1.49715	-1.22443	0.619087	0.146273	0.939003	0.0930007	0.018292	-0.213123	0.293637	0.128672	0	0	0.235978	-0.213942	-0.115474	1.19213	0.174492	0	0	-0.223784	0.0424743	-0.117595	-0.157684	-0.24187	0.193934	0.619008	0.342415	0	0	-0.029293	-0.36635	0.359453	0.709003	1.23707	0	0
0.72	2.91706	1.49946	-1.29855	0.620235	0.156694	0.94058	0.0739926	0.0157285	-0.208266	0.278171	0.130176	0	0	0.255636	-0.20859	-0.126611	1.17873	0.18315	0	0	-0.22423	0.0348346	-0.109663	-0.161924	-0.242624	0.197606	0.620695	0.335419	0	0	-0.0359652	-0.3637	0.358387	0.708192	1.2447	0	0
0.73	2.99055	1.50091	-1.37813	0.621331	0.167035	0.94205	0.0548267	0.0128198	-0.20384	0.263678	0.132778	0	0	0.273555	-0.203451	-0.139131	1.16171	0.190575	0	0	-0.225546	0.0272125	-0.101621	-0.166201	-0.243117	0.199176	0.622351	0.329665	0	0	-0.0421978	-0.361408	0.359123	0.707548	1.24867	0	0
0.74	3.0618	1.50145	-1.45584	0.622359	0.177335	0.943384	0.0350791	0.0102111	-0.198409	0.248695	0.13531	0	0	0.289634	-0.198874	-0.15297	1.14114	0.197377	0	0	-0.227483	0.0199845	-0.0930037	-0.17055	-0.243442	0.19866	0.623896	0.32541	0	0	-0.0479547	-0.359145	0.361191	0.706724	1.24981	0	0
